# xmcd
#
# Track frame offsets:
#	150
#	14925
#	26792
#	40800
#	63549
#	78038
#	95195
#	112575
#	128680
#	140735
#	155280
#	172235
#	190780
#
# Disc length: 2849 seconds
#
# Revision: 1
# Processed by: cddbd v1.5.2PL0 Copyright (c) Steve Scherf et al.
# Submitted via: audiograbber 1.83.01
#
DISCID=b00b1f0d
DTITLE=Mountain Men - Black Market Flowers
DYEAR=2016
DGENRE=
TTITLE0=Still in the race
TTITLE1=Go'round again
TTITLE2=Dog eye
TTITLE3=Someone to talk to
TTITLE4=Passe dans cette vallée
TTITLE5=Flowers
TTITLE6=Work song
TTITLE7=One way left
TTITLE8=Et puis le son
TTITLE9=Where the light comes from
TTITLE10=Wish yourself away
TTITLE11=Let you go
TTITLE12=Some of these days
EXTD=
EXTT0=
EXTT1=
EXTT2=
EXTT3=
EXTT4=
EXTT5=
EXTT6=
EXTT7=
EXTT8=
EXTT9=
EXTT10=
EXTT11=
EXTT12=
PLAYORDER=
